<svg xmlns="http://www.w3.org/2000/svg" version="1.1" xmlns:xlink="http://www.w3.org/1999/xlink" xmlns:svgjs="http://svgjs.dev/svgjs" width="2000" height="1500" viewBox="0 0 2000 1500"><rect width="2000" height="1500" fill="#ffffff"></rect><g transform="matrix(0.75,0,0,0.75,249.090909090909,475.45882802858966)"><svg viewBox="0 0 396 145" data-background-color="#ffffff" preserveAspectRatio="xMidYMid meet" height="732" width="2000" xmlns="http://www.w3.org/2000/svg" xmlns:xlink="http://www.w3.org/1999/xlink"><g id="tight-bounds" transform="matrix(1,0,0,1,0.2400000000000091,0.010874200099266318)"><svg viewBox="0 0 395.52 144.97825159980147" height="144.97825159980147" width="395.52"><g><svg viewBox="0 0 665.7819091636122 244.04302472016167" height="144.97825159980147" width="395.52"><g transform="matrix(1,0,0,1,270.2619091636122,67.31339047642433)"><svg viewBox="0 0 395.52 109.41624376731302" height="109.41624376731302" width="395.52"><g id="textblocktransform"><svg viewBox="0 0 395.52 109.41624376731302" height="109.41624376731302" width="395.52" id="textblock"><g><svg viewBox="0 0 395.52 109.41624376731302" height="109.41624376731302" width="395.52"><g transform="matrix(1,0,0,1,0,0)"><svg width="395.52" viewBox="1.07 -36.06 132.20000000000002 36.57000000000001" height="109.41624376731302" data-palette-color="#001f3f"><path d="M18.36 0.51L18.36 0.51Q13.23 0.51 9.33-1.6 5.42-3.71 3.25-7.63 1.07-11.55 1.07-17.04L1.07-17.04 1.07-18.48Q1.07-23.61 3.11-27.58 5.15-31.54 8.96-33.8 12.77-36.06 17.99-36.06L17.99-36.06Q21.66-36.06 24.91-35.06 28.17-34.06 30.88-31.79L30.88-31.79 30.88-22.92 25.1-22.92 24.32-28.25Q23.49-28.81 22.56-29.22 21.63-29.64 20.56-29.86 19.48-30.08 18.24-30.08L18.24-30.08Q15.38-30.08 13.28-28.69 11.18-27.29 10.05-24.72 8.91-22.14 8.91-18.53L8.91-18.53 8.91-17.04Q8.91-13.55 10.08-10.94 11.25-8.33 13.42-6.88 15.58-5.44 18.48-5.44L18.48-5.44Q19.97-5.44 21.48-5.77 23-6.1 24.32-6.64L24.32-6.64 25.12-11.65 30.88-11.65 30.88-2.93Q28.78-1.51 25.59-0.5 22.39 0.51 18.36 0.51ZM51.56 0.51L51.56 0.51Q47.17 0.51 43.86-0.95 40.55-2.42 38.73-5.25 36.91-8.08 36.91-12.11L36.91-12.11 36.91-30.13 33.2-30.88 33.2-35.55 48.51-35.55 48.51-30.88 44.77-30.13 44.77-12.11Q44.77-9.86 45.58-8.39 46.38-6.91 47.9-6.19 49.41-5.47 51.54-5.47L51.54-5.47Q53.73-5.47 55.26-6.19 56.78-6.91 57.59-8.39 58.4-9.86 58.4-12.11L58.4-12.11 58.4-30.13 54.69-30.88 54.69-35.55 69.99-35.55 69.99-30.88 66.26-30.13 66.26-12.11Q66.26-8.11 64.4-5.27 62.55-2.44 59.25-0.96 55.95 0.51 51.56 0.51ZM89.55 0L71.85 0 71.85-4.64 75.58-5.4 75.58-30.13 71.85-30.88 71.85-35.55 75.58-35.55 87.79-35.55Q94.28-35.55 97.92-33.09 101.56-30.64 101.56-25.78L101.56-25.78Q101.56-23.29 100.3-21.33 99.04-19.36 96.58-18.36L96.58-18.36Q98.7-17.9 100.08-16.75 101.46-15.6 102.13-13.98 102.8-12.35 102.8-10.45L102.8-10.45Q102.8-5.3 99.37-2.65 95.94 0 89.55 0L89.55 0ZM83.44-15.43L83.44-5.98 89.55-5.98Q92.23-5.98 93.61-7.1 94.99-8.23 94.99-10.45L94.99-10.45Q94.99-12.11 94.47-13.21 93.94-14.31 92.85-14.87 91.77-15.43 90.01-15.43L90.01-15.43 83.44-15.43ZM83.44-29.54L83.44-20.73 87.74-20.73Q90.67-20.73 92.19-21.8 93.72-22.88 93.72-25L93.72-25Q93.72-27.34 92.23-28.44 90.74-29.54 87.79-29.54L87.79-29.54 83.44-29.54ZM133.27 0L104.83 0 104.83-4.64 108.56-5.4 108.56-30.13 104.83-30.88 104.83-35.55 132.83-35.55 132.83-25.61 126.85-25.61 126.58-29.52 116.42-29.52 116.42-21.39 128.09-21.39 128.09-15.36 116.42-15.36 116.42-6.03 127.12-6.03 127.39-10.08 133.27-10.08 133.27 0Z" opacity="1" transform="matrix(1,0,0,1,0,0)" fill="#001f3f" class="undefined-text-0" data-fill-palette-color="primary" id="text-0"></path></svg></g></svg></g></svg></g></svg></g><g><svg viewBox="0 0 244.43135999999998 244.04302472016167" height="244.04302472016167" width="244.43135999999998"><g><svg xmlns="http://www.w3.org/2000/svg" xmlns:xlink="http://www.w3.org/1999/xlink" version="1.1" x="0" y="0" viewBox="5.199 5.266999999999996 85.60300000000001 85.46700000000001" enable-background="new 0 0 96 96" xml:space="preserve" height="244.04302472016167" width="244.43135999999998" class="icon-icon-0" data-fill-palette-color="accent" id="icon-0"><path d="M47.417 64.647V28.16c-1.451-0.466-6.963-2.073-13.977-2.073-4.644 0-9.05 0.695-13.103 2.068v36.483c4.07-1.331 8.474-2.005 13.103-2.005C40.203 62.633 45.493 64.051 47.417 64.647zM42.782 38.612l-0.396 1.099c-0.084-0.031-8.506-2.991-17.021 0.001l-0.387-1.102C33.896 35.476 42.423 38.482 42.782 38.612zM42.782 45.618l-0.396 1.098c-0.084-0.031-8.506-2.991-17.021 0.002l-0.387-1.102C33.896 42.481 42.423 45.488 42.782 45.618zM25.364 53.724l-0.387-1.102c8.918-3.135 17.446-0.128 17.805 0.001l-0.396 1.099C42.301 53.691 33.879 50.73 25.364 53.724z" fill="#0074d9" data-fill-palette-color="accent"></path><path d="M68.986 52.039l0.002-0.202 6.675-17.357V28.16c-1.469-0.471-6.982-2.073-13.977-2.073-4.645 0-9.048 0.702-13.102 2.075v36.484c4.071-1.331 8.472-2.014 13.102-2.014 6.756 0 12.047 1.417 13.977 2.014V47.721l-2.325 6.011-4.414 4.927 0.05-5.409c-2.876-0.706-9.092-1.73-15.364 0.474l-0.387-1.102C59.653 50.362 65.877 51.294 68.986 52.039zM71.029 38.612l-0.396 1.099c-0.084-0.031-8.505-2.991-17.021 0.001l-0.387-1.102C62.143 35.476 70.669 38.482 71.029 38.612zM53.611 46.718l-0.387-1.102c8.919-3.135 17.445-0.128 17.805 0.001l-0.396 1.098C70.548 46.685 62.127 43.725 53.611 46.718z" fill="#0074d9" data-fill-palette-color="accent"></path><path d="M80.5 35.216l-3.669 9.486v21.582l-0.782-0.282c-0.061-0.022-6.202-2.201-14.363-2.201-4.793 0-9.333 0.741-13.493 2.203l-0.196 0.069-0.196-0.07c-0.061-0.022-6.202-2.201-14.362-2.201-4.793 0-9.333 0.741-13.493 2.203l-0.777 0.273V31.032H15.5v38.881h65V35.216z" fill="#0074d9" data-fill-palette-color="accent"></path><polygon points="76.729,34.961 75.664,37.732 70.117,52.155 70.116,52.336 70.112,53.556 70.104,55.593 72.398,53.033 75.664,44.54   76.832,41.504 79.01,35.838 76.832,35 " fill="#0074d9" data-fill-palette-color="accent"></polygon><polygon points="80.5,31.032 76.832,31.032 76.832,33.749 80.5,35.16 " fill="#0074d9" data-fill-palette-color="accent"></polygon><circle cx="28.122" cy="88.492" r="2.2" fill="#0074d9" data-fill-palette-color="accent"></circle><polygon points="8.406,27.812 7.415,29.82 5.199,30.142 6.802,31.705 6.424,33.912 8.406,32.87 10.388,33.912 10.009,31.705   11.613,30.142 9.397,29.82 " fill="#0074d9" data-fill-palette-color="accent"></polygon><polygon points="28.869,8.205 28.185,6.819 27.501,8.205 25.971,8.427 27.078,9.506 26.817,11.03 28.185,10.311 29.553,11.03   29.292,9.506 30.399,8.427 " fill="#0074d9" data-fill-palette-color="accent"></polygon><polygon points="86.98,69.95 88.349,70.669 88.087,69.146 89.194,68.067 87.665,67.844 86.98,66.458 86.296,67.844 84.767,68.067   85.874,69.146 85.612,70.669 " fill="#0074d9" data-fill-palette-color="accent"></polygon><polygon points="86.98,14.135 86.078,16.912 83.159,16.912 85.52,18.629 84.618,21.405 86.98,19.689 89.342,21.405 88.44,18.629   90.802,16.912 87.882,16.912 " fill="#0074d9" data-fill-palette-color="accent"></polygon><circle cx="79.024" cy="7.509" r="2.2" fill="#0074d9" data-fill-palette-color="accent"></circle><circle cx="88.517" cy="48.986" r="1.8" fill="#0074d9" data-fill-palette-color="accent"></circle><circle cx="14.852" cy="17.155" r="2.4" fill="#0074d9" data-fill-palette-color="accent"></circle><path d="M21.877 88.514c0.326 0.083 0.655 0.156 0.988 0.223l0.099-0.49c-0.325-0.065-0.646-0.138-0.964-0.217L21.877 88.514z" fill="#0074d9" data-fill-palette-color="accent"></path><path d="M6.758 71.81c0.097 0.653 0.228 1.309 0.388 1.95l0.485-0.122c-0.157-0.625-0.285-1.265-0.379-1.901L6.758 71.81z" fill="#0074d9" data-fill-palette-color="accent"></path><path d="M18.134 87.172c0.597 0.283 1.216 0.54 1.838 0.763l0.169-0.471c-0.607-0.217-1.21-0.468-1.793-0.744L18.134 87.172z" fill="#0074d9" data-fill-palette-color="accent"></path><path d="M7.04 68.852c0-0.327 0.008-0.655 0.024-0.985l-0.499-0.024C6.548 68.18 6.54 68.517 6.54 68.852c0 0.328 0.008 0.655 0.024 0.98l0.499-0.024C7.047 69.49 7.04 69.171 7.04 68.852z" fill="#0074d9" data-fill-palette-color="accent"></path><path d="M11.787 82.448c0.441 0.49 0.914 0.964 1.404 1.41l0.337-0.37c-0.478-0.435-0.939-0.897-1.37-1.375L11.787 82.448z" fill="#0074d9" data-fill-palette-color="accent"></path><path d="M7.724 75.663C7.946 76.282 8.202 76.9 8.486 77.5l0.452-0.214c-0.277-0.585-0.527-1.188-0.743-1.792L7.724 75.663z" fill="#0074d9" data-fill-palette-color="accent"></path><path d="M9.423 79.253c0.339 0.567 0.711 1.124 1.104 1.655l0.402-0.297c-0.383-0.519-0.746-1.062-1.077-1.615L9.423 79.253z" fill="#0074d9" data-fill-palette-color="accent"></path><path d="M14.726 85.124c0.532 0.396 1.088 0.769 1.653 1.108l0.258-0.429c-0.551-0.331-1.093-0.695-1.612-1.081L14.726 85.124z" fill="#0074d9" data-fill-palette-color="accent"></path><path d="M7.427 64.949l-0.49-0.098c-0.066 0.333-0.125 0.665-0.174 0.998l0.494 0.073C7.306 65.598 7.363 65.273 7.427 64.949z" fill="#0074d9" data-fill-palette-color="accent"></path><path d="M89.076 76.982l0.498 0.046c0.031-0.336 0.05-0.675 0.057-1.017l-0.5-0.01C89.124 76.331 89.105 76.658 89.076 76.982z" fill="#0074d9" data-fill-palette-color="accent"></path><path d="M85.711 84.731l0.374 0.332c0.493-0.555 0.944-1.152 1.342-1.773l-0.421-0.27C86.623 83.62 86.187 84.195 85.711 84.731z" fill="#0074d9" data-fill-palette-color="accent"></path><path d="M82.404 87.441l0.252 0.432c0.639-0.373 1.253-0.8 1.826-1.27l-0.317-0.387C83.612 86.669 83.02 87.082 82.404 87.441z" fill="#0074d9" data-fill-palette-color="accent"></path><path d="M88.015 81.128l0.459 0.199c0.295-0.679 0.538-1.387 0.721-2.104l-0.484-0.124C88.533 79.791 88.299 80.473 88.015 81.128z" fill="#0074d9" data-fill-palette-color="accent"></path><path d="M78.417 88.985l0.104 0.489c0.723-0.154 1.439-0.368 2.131-0.636l-0.181-0.466C79.806 88.631 79.114 88.837 78.417 88.985z" fill="#0074d9" data-fill-palette-color="accent"></path><path d="M75.302 89.28l-0.01 0.5c0.096 0.002 0.192 0.003 0.288 0.003 0.245 0 0.488-0.006 0.73-0.019l-0.025-0.499C75.959 89.282 75.633 89.289 75.302 89.28z" fill="#0074d9" data-fill-palette-color="accent"></path><rect x="88.267" y="36.377" width="0.5" height="2" fill="#0074d9" data-fill-palette-color="accent"></rect><rect x="88.267" y="28.377" width="0.5" height="2" fill="#0074d9" data-fill-palette-color="accent"></rect><rect x="88.267" y="40.377" width="0.5" height="2" fill="#0074d9" data-fill-palette-color="accent"></rect><rect x="88.267" y="32.377" width="0.5" height="2" fill="#0074d9" data-fill-palette-color="accent"></rect></svg></g></svg></g></svg></g><defs></defs></svg><rect width="395.52" height="144.97825159980147" fill="none" stroke="none" visibility="hidden"></rect></g></svg></g></svg>